<svg width="99.879" height="64.706" xmlns="http://www.w3.org/2000/svg">
 <g>
  <title>Layer 1</title>
  <path fill="#5c635e" id="svg_1" d="m98.251999,0c-0.157997,0 -0.296997,0.034 -0.443001,0.074l-96.584998,24.687c-0.704,0.179001 -1.224,0.816 -1.224,1.573999c0,0.575001 0.317,1.071001 0.766,1.358002l13.09,8.514c0.555,0.356998 0.964,0.995998 0.964,1.708l0.175,16.729c0,0.899998 0.726,1.626999 1.623,1.626999c0.337,0 0.671,-0.108002 0.931999,-0.283001l8.342001,-5.407997l-3.921,-4.857002c-0.254002,-0.327 -0.193001,-0.793999 0.132,-1.051998c0.327999,-0.253002 0.795,-0.189003 1.046999,0.135998l14.439001,19.264999c0.295998,0.387001 0.764,0.635002 1.292,0.635002c0.470001,0 0.926998,-0.152 1.223999,-0.473l59.310001,-61.477001c0.283997,-0.292 0.463997,-0.693 0.463997,-1.137c0,-0.897 -0.727997,-1.62 -1.626999,-1.62zm-5.788002,4.426l-48.001995,24.739001c-0.710003,0.372 -1.211002,1.077999 -1.302002,1.910999l-3.884998,30.618c0,0.244999 -0.198002,0.440998 -0.442001,0.440998c-0.242001,0 -0.443001,-0.195999 -0.443001,-0.440998l0.433002,-29.112999c0,-0.242001 -0.198002,-0.441002 -0.442001,-0.441002c-0.062,0 -0.125999,0.014 -0.181,0.038002l-18.555,8.470997c-0.344,0.161003 -0.601,0.485001 -0.665001,0.870003l-0.799,5.850998c-0.039,0.203003 -0.218,0.357002 -0.435999,0.357002c-0.242001,0 -0.441,-0.199001 -0.441,-0.444l0,-7.913002c0,-0.941998 0.573999,-1.746998 1.386,-2.09l15.201998,-6.873999c0.157001,-0.069 0.267002,-0.226999 0.267002,-0.405001c0,-0.222 -0.167,-0.409 -0.382,-0.439999l-30.086,-2.862001c-0.213,-0.032 -0.379,-0.212999 -0.379,-0.437c0,-0.243 0.198,-0.438999 0.444,-0.438999l37.592,1.063999c0.358002,0 0.706001,-0.077 1.011002,-0.216999l49.910995,-22.658c0.028,-0.014 0.059006,-0.02 0.091003,-0.02c0.128998,0 0.228996,0.104 0.228996,0.228c0,0.092 -0.052994,0.17 -0.125999,0.206z"/>
 </g>
</svg>