<svg width="81.187" height="100" xmlns="http://www.w3.org/2000/svg">
 <g>
  <title>Layer 1</title>
  <path id="svg_1" d="m37.808998,24.788l20.499001,46.851c-0.000999,4.973999 -0.917999,10.088005 -3.257,14.384003c-0.346001,0.637001 -0.742001,1.278999 -1.185001,1.902l-2.789997,-9.333l-7.910999,9.541l9.746998,1.020996c-1.834,2.147003 -4.251999,3.843002 -7.084999,3.895004c-7.698002,0.144997 -11.142002,-11.246002 -12.245003,-17.079002c-0.122997,-0.646004 -0.253998,-1.301003 -0.396999,-1.961998l9.478001,2.994995l-3.448002,-11.903999l-6.343998,7.521004c-1.458,-6.137001 -3.879,-12.656002 -7.868,-17.312c-2.943001,-3.439003 -7.236,-6.214001 -11.947001,-5.266003c-0.992,0.199001 -1.901,0.537003 -2.735,0.985001l-0.029,-9.431l-10.291998,6.908001l8.708,3.595001c-3.328,2.686001 -5.122,7.311001 -5.806,11.418999l-0.203,1.221996l2.444,0.407005l0.205,-1.222004c0.57,-3.425999 2.077,-7.656998 4.981,-9.946999l0.032,9.961002l10.290001,-6.907001l-9.198001,-3.798c0.639,-0.349998 1.335,-0.610001 2.09,-0.763c3.776999,-0.759998 7.248,1.729 9.577001,4.448002c3.695,4.315998 5.957998,10.487995 7.324999,16.222996l-9.088001,-2.871994l3.448,11.903999l6.055,-7.176003c0.102001,0.481003 0.195,0.959999 0.286001,1.431999c1.376999,7.280998 5.452999,19.271004 14.727001,19.097c3.570999,-0.066002 6.587997,-2.057999 8.862,-4.692001l2.739998,9.166l7.911003,-9.538994l-9.57,-1.001007c0.521999,-0.729996 0.993999,-1.487 1.41,-2.251999c2.577999,-4.737999 3.584999,-10.334 3.556999,-15.787994l20.401997,-46.632004l-21.686996,-24.789001l-21.689003,24.788l0,0z" fill="#dcf2e6"/>
 </g>
</svg>