<svg width="100" height="76.434" xmlns="http://www.w3.org/2000/svg">
 <g>
  <title>Layer 1</title>
  <path fill="#efeaea" id="svg_1" d="m98.573997,67.989998c-2.115997,-10.918999 -31.236,-9.757999 -38.253998,-18.309998c-1.48,-1.805 -1.48,-1.805 -0.487999,-8.507c1.694,-7.501999 3.229,-2.846001 5.651001,-17.809c2.033997,-12.566 -2.306004,-23.364 -15.483002,-23.364s-17.516998,10.798 -15.483002,23.364c2.422001,14.962999 3.956001,10.307001 5.651001,17.809c0.992001,6.702 0.992001,6.702 -0.488003,8.507c-7.017998,8.551998 -36.137996,7.390999 -38.253996,18.309998c-0.251,1.292 -1.426,8.444 -1.426,8.444l100,0c0,0 -1.175003,-7.152 -1.426003,-8.444z"/>
 </g>
</svg>